<svg width="125" height="11" viewBox="0 0 125 11" fill="none" xmlns="http://www.w3.org/2000/svg">
<path d="M4.76686 10.8735C3.9362 10.8735 3.21753 10.6728 2.61086 10.2715C2.0042 9.87012 1.53753 9.29146 1.21086 8.53546C0.89353 7.77946 0.734863 6.87879 0.734863 5.83346C0.734863 4.78812 0.89353 3.88746 1.21086 3.13146C1.53753 2.37546 2.0042 1.79679 2.61086 1.39546C3.21753 0.994124 3.9362 0.793457 4.76686 0.793457C5.59753 0.793457 6.3162 0.994124 6.92286 1.39546C7.52953 1.79679 7.99153 2.37546 8.30886 3.13146C8.63553 3.88746 8.79886 4.78812 8.79886 5.83346C8.79886 6.87879 8.63553 7.77946 8.30886 8.53546C7.99153 9.29146 7.52953 9.87012 6.92286 10.2715C6.3162 10.6728 5.59753 10.8735 4.76686 10.8735ZM4.76686 9.97746C5.71886 9.97746 6.45153 9.61812 6.96486 8.89946C7.48753 8.17146 7.74886 7.14946 7.74886 5.83346C7.74886 4.50812 7.48753 3.48612 6.96486 2.76746C6.45153 2.04879 5.71886 1.68946 4.76686 1.68946C3.81486 1.68946 3.07753 2.04879 2.55486 2.76746C2.04153 3.48612 1.78486 4.50812 1.78486 5.83346C1.78486 7.14946 2.04153 8.17146 2.55486 8.89946C3.07753 9.61812 3.81486 9.97746 4.76686 9.97746Z" fill="white"/>
<path d="M14.0311 10.8735C13.2845 10.8735 12.5891 10.7335 11.9451 10.4535C11.3011 10.1735 10.7645 9.77212 10.3351 9.24946C10.2418 9.12812 10.1951 9.01146 10.1951 8.89946C10.1951 8.75012 10.2651 8.62879 10.4051 8.53546C10.4985 8.47012 10.5965 8.43746 10.6991 8.43746C10.8671 8.43746 11.0071 8.51679 11.1191 8.67546C11.4271 9.08612 11.8378 9.40812 12.3511 9.64146C12.8738 9.86546 13.4338 9.97746 14.0311 9.97746C14.8898 9.97746 15.5618 9.80946 16.0471 9.47346C16.5418 9.12812 16.7891 8.65212 16.7891 8.04546C16.7891 7.39212 16.6165 6.89746 16.2711 6.56146C15.9351 6.21612 15.4358 6.04346 14.7731 6.04346H13.2051C12.8318 6.04346 12.6451 5.89879 12.6451 5.60946C12.6451 5.31079 12.8318 5.16146 13.2051 5.16146H14.7731C15.2958 5.16146 15.7205 5.01212 16.0471 4.71346C16.3831 4.40546 16.5511 4.00879 16.5511 3.52346C16.5511 2.93546 16.3365 2.48279 15.9071 2.16546C15.4871 1.84812 14.8805 1.68946 14.0871 1.68946C13.5365 1.68946 13.0278 1.78746 12.5611 1.98346C12.1038 2.17946 11.7118 2.46412 11.3851 2.83746C11.2638 2.97746 11.1285 3.04746 10.9791 3.04746C10.8858 3.04746 10.7785 3.01012 10.6571 2.93546C10.5265 2.85146 10.4611 2.73479 10.4611 2.58546C10.4611 2.45479 10.5125 2.33812 10.6151 2.23546C11.0538 1.76879 11.5671 1.41412 12.1551 1.17146C12.7525 0.919457 13.3965 0.793457 14.0871 0.793457C15.1885 0.793457 16.0471 1.04079 16.6631 1.53546C17.2885 2.03012 17.6011 2.69279 17.6011 3.52346C17.6011 3.94346 17.4751 4.33079 17.2231 4.68546C16.9805 5.03079 16.6258 5.32012 16.1591 5.55346V5.58146C16.7285 5.80546 17.1485 6.12279 17.4191 6.53346C17.6991 6.93479 17.8391 7.43879 17.8391 8.04546C17.8391 8.61479 17.6805 9.11412 17.3631 9.54346C17.0458 9.97279 16.5978 10.3041 16.0191 10.5375C15.4498 10.7615 14.7871 10.8735 14.0311 10.8735Z" fill="white"/>
<path d="M23.1109 10.8735C22.3549 10.8735 21.6829 10.7615 21.0949 10.5375C20.5069 10.3041 20.0449 9.97746 19.7089 9.55746C19.3822 9.12812 19.2189 8.61946 19.2189 8.03146C19.2189 7.46212 19.4009 6.96746 19.7649 6.54746C20.1382 6.12746 20.6422 5.81012 21.2769 5.59546V5.56746C20.7356 5.37146 20.3156 5.09146 20.0169 4.72746C19.7276 4.35412 19.5829 3.92479 19.5829 3.43946C19.5829 2.65546 19.8862 2.02079 20.4929 1.53546C21.0996 1.04079 21.9722 0.793457 23.1109 0.793457C24.2496 0.793457 25.1222 1.03612 25.7289 1.52146C26.3356 2.00679 26.6389 2.64612 26.6389 3.43946C26.6389 3.91546 26.4896 4.34012 26.1909 4.71346C25.9016 5.08679 25.4862 5.37146 24.9449 5.56746V5.59546C25.5796 5.81012 26.0789 6.12746 26.4429 6.54746C26.8162 6.96746 27.0029 7.46212 27.0029 8.03146C27.0029 8.61946 26.8349 9.12812 26.4989 9.55746C26.1722 9.97746 25.7149 10.3041 25.1269 10.5375C24.5389 10.7615 23.8669 10.8735 23.1109 10.8735ZM23.1109 5.17546C23.8669 5.17546 24.4689 5.01679 24.9169 4.69946C25.3649 4.38212 25.5889 3.96212 25.5889 3.43946C25.5889 2.89812 25.3742 2.47346 24.9449 2.16546C24.5156 1.84812 23.9042 1.68946 23.1109 1.68946C22.3269 1.68946 21.7156 1.84346 21.2769 2.15146C20.8476 2.45946 20.6329 2.88879 20.6329 3.43946C20.6329 3.96212 20.8569 4.38212 21.3049 4.69946C21.7529 5.01679 22.3549 5.17546 23.1109 5.17546ZM23.1109 9.97746C23.9882 9.97746 24.6789 9.80946 25.1829 9.47346C25.6962 9.12812 25.9529 8.64746 25.9529 8.03146C25.9529 7.39679 25.6962 6.90679 25.1829 6.56146C24.6789 6.20679 23.9882 6.02946 23.1109 6.02946C22.2429 6.02946 21.5522 6.20679 21.0389 6.56146C20.5256 6.91612 20.2689 7.40612 20.2689 8.03146C20.2689 8.64746 20.5209 9.12812 21.0249 9.47346C21.5382 9.80946 22.2336 9.97746 23.1109 9.97746Z" fill="white"/>
<path d="M34.0624 10.8735C33.8944 10.8735 33.7637 10.8221 33.6704 10.7195C33.5864 10.6168 33.5444 10.4768 33.5444 10.2995V8.46546H28.7564C28.5977 8.46546 28.4717 8.42812 28.3784 8.35346C28.2944 8.26946 28.2524 8.17146 28.2524 8.05946C28.2524 7.94746 28.2944 7.83546 28.3784 7.72346L33.6704 1.00346C33.7824 0.863457 33.9317 0.793457 34.1184 0.793457C34.2491 0.793457 34.3611 0.835457 34.4544 0.919457C34.5477 1.00346 34.5944 1.11079 34.5944 1.24146V7.58346H35.6024C35.9664 7.58346 36.1484 7.73279 36.1484 8.03146C36.1484 8.17146 36.0971 8.27879 35.9944 8.35346C35.9011 8.42812 35.7704 8.46546 35.6024 8.46546H34.5944V10.2995C34.5944 10.4768 34.5431 10.6168 34.4404 10.7195C34.3471 10.8221 34.2211 10.8735 34.0624 10.8735ZM33.5724 7.58346V2.59946L29.6664 7.58346H33.5724Z" fill="white"/>
<path d="M44.9843 10.8735C44.2376 10.8735 43.5423 10.7335 42.8983 10.4535C42.2543 10.1735 41.7176 9.77212 41.2883 9.24946C41.1949 9.12812 41.1483 9.01146 41.1483 8.89946C41.1483 8.75012 41.2183 8.62879 41.3583 8.53546C41.4516 8.47012 41.5496 8.43746 41.6523 8.43746C41.8203 8.43746 41.9603 8.51679 42.0723 8.67546C42.3803 9.08612 42.7909 9.40812 43.3043 9.64146C43.8269 9.86546 44.3869 9.97746 44.9843 9.97746C45.8429 9.97746 46.5149 9.80946 47.0003 9.47346C47.4949 9.12812 47.7423 8.65212 47.7423 8.04546C47.7423 7.39212 47.5696 6.89746 47.2243 6.56146C46.8883 6.21612 46.3889 6.04346 45.7263 6.04346H44.1583C43.7849 6.04346 43.5983 5.89879 43.5983 5.60946C43.5983 5.31079 43.7849 5.16146 44.1583 5.16146H45.7263C46.2489 5.16146 46.6736 5.01212 47.0003 4.71346C47.3363 4.40546 47.5043 4.00879 47.5043 3.52346C47.5043 2.93546 47.2896 2.48279 46.8603 2.16546C46.4403 1.84812 45.8336 1.68946 45.0403 1.68946C44.4896 1.68946 43.9809 1.78746 43.5143 1.98346C43.0569 2.17946 42.6649 2.46412 42.3383 2.83746C42.2169 2.97746 42.0816 3.04746 41.9323 3.04746C41.8389 3.04746 41.7316 3.01012 41.6103 2.93546C41.4796 2.85146 41.4143 2.73479 41.4143 2.58546C41.4143 2.45479 41.4656 2.33812 41.5683 2.23546C42.0069 1.76879 42.5203 1.41412 43.1083 1.17146C43.7056 0.919457 44.3496 0.793457 45.0403 0.793457C46.1416 0.793457 47.0003 1.04079 47.6163 1.53546C48.2416 2.03012 48.5543 2.69279 48.5543 3.52346C48.5543 3.94346 48.4283 4.33079 48.1763 4.68546C47.9336 5.03079 47.5789 5.32012 47.1123 5.55346V5.58146C47.6816 5.80546 48.1016 6.12279 48.3723 6.53346C48.6523 6.93479 48.7923 7.43879 48.7923 8.04546C48.7923 8.61479 48.6336 9.11412 48.3163 9.54346C47.9989 9.97279 47.5509 10.3041 46.9723 10.5375C46.4029 10.7615 45.7403 10.8735 44.9843 10.8735Z" fill="white"/>
<path d="M53.07 10.8735C52.9114 10.8735 52.7854 10.8268 52.692 10.7335C52.5987 10.6308 52.552 10.4908 52.552 10.3135V1.99746L50.802 2.66946C50.718 2.70679 50.6247 2.72546 50.522 2.72546C50.298 2.72546 50.144 2.63212 50.06 2.44546C50.032 2.37079 50.018 2.30079 50.018 2.23546C50.018 2.01146 50.1394 1.85746 50.382 1.77346L52.888 0.835457C52.972 0.807457 53.0514 0.793457 53.126 0.793457C53.266 0.793457 53.3827 0.84479 53.476 0.947457C53.5694 1.05012 53.616 1.18079 53.616 1.33946V10.3135C53.616 10.4908 53.5647 10.6308 53.462 10.7335C53.3687 10.8268 53.238 10.8735 53.07 10.8735Z" fill="white"/>
<path d="M59.1473 10.8735C58.4007 10.8735 57.7147 10.7335 57.0893 10.4535C56.464 10.1735 55.9367 9.77212 55.5073 9.24946C55.414 9.12812 55.3673 9.01146 55.3673 8.89946C55.3673 8.75012 55.4373 8.62879 55.5773 8.53546C55.6613 8.47946 55.7593 8.45146 55.8713 8.45146C56.058 8.45146 56.198 8.52146 56.2913 8.66146C56.6087 9.10012 57.0147 9.43146 57.5093 9.65546C58.0133 9.87012 58.5547 9.97746 59.1333 9.97746C60.0293 9.97746 60.7247 9.73946 61.2193 9.26346C61.7234 8.78746 61.9753 8.11079 61.9753 7.23346C61.9753 6.44012 61.7327 5.82879 61.2473 5.39946C60.762 4.96079 60.118 4.74146 59.3153 4.74146C58.8487 4.74146 58.41 4.82546 57.9993 4.99346C57.598 5.16146 57.2713 5.39012 57.0193 5.67946C56.786 5.94079 56.5667 6.07146 56.3613 6.07146C56.1747 6.07146 56.0253 6.02012 55.9133 5.91746C55.8013 5.80546 55.7593 5.66546 55.7873 5.49746L56.3333 1.84346C56.38 1.56346 56.5014 1.34412 56.6973 1.18546C56.9027 1.01746 57.1733 0.933457 57.5093 0.933457H62.0313C62.3953 0.933457 62.5773 1.08279 62.5773 1.38146C62.5773 1.52146 62.526 1.62879 62.4233 1.70346C62.33 1.76879 62.1993 1.80146 62.0313 1.80146H57.7753C57.6073 1.80146 57.486 1.83879 57.4113 1.91346C57.3367 1.98812 57.2853 2.10946 57.2573 2.27746L56.8933 4.72746C57.248 4.43812 57.6447 4.21879 58.0833 4.06946C58.5313 3.91079 58.9933 3.83146 59.4693 3.83146C60.1507 3.83146 60.762 3.96679 61.3033 4.23746C61.8447 4.50812 62.2647 4.90012 62.5633 5.41346C62.8713 5.91746 63.0253 6.51946 63.0253 7.21946C63.0253 7.94746 62.8713 8.58679 62.5633 9.13746C62.2553 9.68812 61.8074 10.1175 61.2193 10.4255C60.6407 10.7241 59.95 10.8735 59.1473 10.8735Z" fill="white"/>
<path d="M73.8476 10.8735C73.6796 10.8735 73.5489 10.8221 73.4556 10.7195C73.3716 10.6168 73.3296 10.4768 73.3296 10.2995V8.46546H68.5416C68.3829 8.46546 68.2569 8.42812 68.1636 8.35346C68.0796 8.26946 68.0376 8.17146 68.0376 8.05946C68.0376 7.94746 68.0796 7.83546 68.1636 7.72346L73.4556 1.00346C73.5676 0.863457 73.7169 0.793457 73.9036 0.793457C74.0342 0.793457 74.1462 0.835457 74.2396 0.919457C74.3329 1.00346 74.3796 1.11079 74.3796 1.24146V7.58346H75.3876C75.7516 7.58346 75.9336 7.73279 75.9336 8.03146C75.9336 8.17146 75.8822 8.27879 75.7796 8.35346C75.6862 8.42812 75.5556 8.46546 75.3876 8.46546H74.3796V10.2995C74.3796 10.4768 74.3282 10.6168 74.2256 10.7195C74.1322 10.8221 74.0062 10.8735 73.8476 10.8735ZM73.3576 7.58346V2.59946L69.4516 7.58346H73.3576Z" fill="white"/>
<path d="M80.9813 10.8735C80.2347 10.8735 79.5487 10.7335 78.9233 10.4535C78.298 10.1735 77.7707 9.77212 77.3413 9.24946C77.248 9.12812 77.2013 9.01146 77.2013 8.89946C77.2013 8.75012 77.2713 8.62879 77.4113 8.53546C77.4953 8.47946 77.5933 8.45146 77.7053 8.45146C77.892 8.45146 78.032 8.52146 78.1253 8.66146C78.4427 9.10012 78.8487 9.43146 79.3433 9.65546C79.8473 9.87012 80.3887 9.97746 80.9673 9.97746C81.8633 9.97746 82.5587 9.73946 83.0533 9.26346C83.5573 8.78746 83.8093 8.11079 83.8093 7.23346C83.8093 6.44012 83.5667 5.82879 83.0813 5.39946C82.596 4.96079 81.952 4.74146 81.1493 4.74146C80.6827 4.74146 80.244 4.82546 79.8333 4.99346C79.432 5.16146 79.1053 5.39012 78.8533 5.67946C78.62 5.94079 78.4007 6.07146 78.1953 6.07146C78.0087 6.07146 77.8593 6.02012 77.7473 5.91746C77.6353 5.80546 77.5933 5.66546 77.6213 5.49746L78.1673 1.84346C78.214 1.56346 78.3353 1.34412 78.5313 1.18546C78.7367 1.01746 79.0073 0.933457 79.3433 0.933457H83.8653C84.2293 0.933457 84.4113 1.08279 84.4113 1.38146C84.4113 1.52146 84.36 1.62879 84.2573 1.70346C84.164 1.76879 84.0333 1.80146 83.8653 1.80146H79.6093C79.4413 1.80146 79.32 1.83879 79.2453 1.91346C79.1707 1.98812 79.1193 2.10946 79.0913 2.27746L78.7273 4.72746C79.082 4.43812 79.4787 4.21879 79.9173 4.06946C80.3653 3.91079 80.8273 3.83146 81.3033 3.83146C81.9847 3.83146 82.596 3.96679 83.1373 4.23746C83.6787 4.50812 84.0987 4.90012 84.3973 5.41346C84.7053 5.91746 84.8593 6.51946 84.8593 7.21946C84.8593 7.94746 84.7053 8.58679 84.3973 9.13746C84.0893 9.68812 83.6413 10.1175 83.0533 10.4255C82.4747 10.7241 81.784 10.8735 80.9813 10.8735Z" fill="white"/>
<path d="M90.0595 10.8735C89.3128 10.8735 88.6268 10.7335 88.0015 10.4535C87.3761 10.1735 86.8488 9.77212 86.4195 9.24946C86.3261 9.12812 86.2795 9.01146 86.2795 8.89946C86.2795 8.75012 86.3495 8.62879 86.4895 8.53546C86.5735 8.47946 86.6715 8.45146 86.7835 8.45146C86.9701 8.45146 87.1101 8.52146 87.2035 8.66146C87.5208 9.10012 87.9268 9.43146 88.4215 9.65546C88.9255 9.87012 89.4668 9.97746 90.0455 9.97746C90.9415 9.97746 91.6368 9.73946 92.1315 9.26346C92.6355 8.78746 92.8875 8.11079 92.8875 7.23346C92.8875 6.44012 92.6448 5.82879 92.1595 5.39946C91.6741 4.96079 91.0301 4.74146 90.2275 4.74146C89.7608 4.74146 89.3221 4.82546 88.9115 4.99346C88.5101 5.16146 88.1835 5.39012 87.9315 5.67946C87.6981 5.94079 87.4788 6.07146 87.2735 6.07146C87.0868 6.07146 86.9375 6.02012 86.8255 5.91746C86.7135 5.80546 86.6715 5.66546 86.6995 5.49746L87.2455 1.84346C87.2921 1.56346 87.4135 1.34412 87.6095 1.18546C87.8148 1.01746 88.0855 0.933457 88.4215 0.933457H92.9435C93.3075 0.933457 93.4895 1.08279 93.4895 1.38146C93.4895 1.52146 93.4381 1.62879 93.3355 1.70346C93.2421 1.76879 93.1115 1.80146 92.9435 1.80146H88.6875C88.5195 1.80146 88.3981 1.83879 88.3235 1.91346C88.2488 1.98812 88.1975 2.10946 88.1695 2.27746L87.8055 4.72746C88.1601 4.43812 88.5568 4.21879 88.9955 4.06946C89.4435 3.91079 89.9055 3.83146 90.3815 3.83146C91.0628 3.83146 91.6741 3.96679 92.2155 4.23746C92.7568 4.50812 93.1768 4.90012 93.4755 5.41346C93.7835 5.91746 93.9375 6.51946 93.9375 7.21946C93.9375 7.94746 93.7835 8.58679 93.4755 9.13746C93.1675 9.68812 92.7195 10.1175 92.1315 10.4255C91.5528 10.7241 90.8621 10.8735 90.0595 10.8735Z" fill="white"/>
<path d="M102.912 10.8735C101.67 10.8735 100.611 10.4955 99.7337 9.73946C99.6123 9.62746 99.5517 9.50612 99.5517 9.37546C99.5517 9.25412 99.6123 9.13746 99.7337 9.02546C99.8363 8.94146 99.9297 8.89946 100.014 8.89946C100.126 8.89946 100.27 8.96479 100.448 9.09546C100.849 9.39412 101.236 9.61812 101.61 9.76746C101.992 9.90746 102.426 9.97746 102.912 9.97746C103.882 9.97746 104.606 9.62746 105.082 8.92746C105.567 8.22746 105.81 7.19612 105.81 5.83346L105.782 5.81946C105.492 6.38879 105.091 6.83212 104.578 7.14946C104.074 7.45746 103.467 7.61146 102.758 7.61146C102.011 7.61146 101.358 7.46679 100.798 7.17746C100.247 6.87879 99.8223 6.47279 99.5237 5.95946C99.2343 5.44612 99.0897 4.87212 99.0897 4.23746C99.0897 3.55612 99.239 2.95879 99.5377 2.44546C99.8363 1.92279 100.266 1.51679 100.826 1.22746C101.395 0.938124 102.067 0.793457 102.842 0.793457C104.176 0.793457 105.17 1.22746 105.824 2.09546C106.486 2.95412 106.818 4.20479 106.818 5.84746C106.818 7.46212 106.477 8.70346 105.796 9.57146C105.114 10.4395 104.153 10.8735 102.912 10.8735ZM102.828 6.71546C103.621 6.71546 104.26 6.47746 104.746 6.00146C105.24 5.52546 105.488 4.90479 105.488 4.13946C105.488 3.37412 105.245 2.77679 104.76 2.34746C104.284 1.90879 103.644 1.68946 102.842 1.68946C102.02 1.68946 101.362 1.91812 100.868 2.37546C100.382 2.82346 100.14 3.43012 100.14 4.19546C100.14 4.96079 100.382 5.57212 100.868 6.02946C101.362 6.48679 102.016 6.71546 102.828 6.71546Z" fill="white"/>
<path d="M112.283 10.8735C110.985 10.8735 109.982 10.4301 109.273 9.54346C108.563 8.65679 108.209 7.41546 108.209 5.81946C108.209 4.78346 108.372 3.88746 108.699 3.13146C109.025 2.37546 109.497 1.79679 110.113 1.39546C110.738 0.994124 111.475 0.793457 112.325 0.793457C113.594 0.793457 114.663 1.16212 115.531 1.89946C115.643 1.99279 115.699 2.10946 115.699 2.24946C115.699 2.39879 115.633 2.52479 115.503 2.62746C115.428 2.70212 115.335 2.73946 115.223 2.73946C115.083 2.73946 114.938 2.67879 114.789 2.55746C114.387 2.24946 114 2.03012 113.627 1.89946C113.263 1.75946 112.829 1.68946 112.325 1.68946C111.326 1.68946 110.561 2.05812 110.029 2.79546C109.506 3.53279 109.245 4.55012 109.245 5.84746L109.273 5.86146C109.581 5.32012 109.991 4.89079 110.505 4.57346C111.027 4.24679 111.643 4.08346 112.353 4.08346C113.109 4.08346 113.753 4.22812 114.285 4.51746C114.826 4.80679 115.237 5.20812 115.517 5.72146C115.797 6.22546 115.937 6.79946 115.937 7.44346C115.937 8.10612 115.787 8.69879 115.489 9.22146C115.199 9.74412 114.779 10.1501 114.229 10.4395C113.678 10.7288 113.029 10.8735 112.283 10.8735ZM112.283 9.97746C113.076 9.97746 113.706 9.75346 114.173 9.30546C114.649 8.84812 114.887 8.24146 114.887 7.48546C114.887 6.72012 114.649 6.11346 114.173 5.66546C113.706 5.21746 113.076 4.99346 112.283 4.99346C111.788 4.99346 111.331 5.10546 110.911 5.32946C110.491 5.55346 110.155 5.86146 109.903 6.25346C109.66 6.64546 109.539 7.07479 109.539 7.54146C109.539 8.01746 109.66 8.44212 109.903 8.81546C110.145 9.17946 110.477 9.46412 110.897 9.66946C111.317 9.87479 111.779 9.97746 112.283 9.97746Z" fill="white"/>
<path d="M121.122 10.8735C120.375 10.8735 119.689 10.7335 119.064 10.4535C118.439 10.1735 117.911 9.77212 117.482 9.24946C117.389 9.12812 117.342 9.01146 117.342 8.89946C117.342 8.75012 117.412 8.62879 117.552 8.53546C117.636 8.47946 117.734 8.45146 117.846 8.45146C118.033 8.45146 118.173 8.52146 118.266 8.66146C118.583 9.10012 118.989 9.43146 119.484 9.65546C119.988 9.87012 120.529 9.97746 121.108 9.97746C122.004 9.97746 122.699 9.73946 123.194 9.26346C123.698 8.78746 123.95 8.11079 123.95 7.23346C123.95 6.44012 123.707 5.82879 123.222 5.39946C122.737 4.96079 122.093 4.74146 121.29 4.74146C120.823 4.74146 120.385 4.82546 119.974 4.99346C119.573 5.16146 119.246 5.39012 118.994 5.67946C118.761 5.94079 118.541 6.07146 118.336 6.07146C118.149 6.07146 118 6.02012 117.888 5.91746C117.776 5.80546 117.734 5.66546 117.762 5.49746L118.308 1.84346C118.355 1.56346 118.476 1.34412 118.672 1.18546C118.877 1.01746 119.148 0.933457 119.484 0.933457H124.006C124.37 0.933457 124.552 1.08279 124.552 1.38146C124.552 1.52146 124.501 1.62879 124.398 1.70346C124.305 1.76879 124.174 1.80146 124.006 1.80146H119.75C119.582 1.80146 119.461 1.83879 119.386 1.91346C119.311 1.98812 119.26 2.10946 119.232 2.27746L118.868 4.72746C119.223 4.43812 119.619 4.21879 120.058 4.06946C120.506 3.91079 120.968 3.83146 121.444 3.83146C122.125 3.83146 122.737 3.96679 123.278 4.23746C123.819 4.50812 124.239 4.90012 124.538 5.41346C124.846 5.91746 125 6.51946 125 7.21946C125 7.94746 124.846 8.58679 124.538 9.13746C124.23 9.68812 123.782 10.1175 123.194 10.4255C122.615 10.7241 121.925 10.8735 121.122 10.8735Z" fill="white"/>
</svg>
