<svg width="30" height="31" viewBox="0 0 30 31" fill="none" xmlns="http://www.w3.org/2000/svg">
<mask id="mask0_442_218" style="mask-type:alpha" maskUnits="userSpaceOnUse" x="0" y="0" width="30" height="31">
<rect y="0.5" width="30" height="30" fill="#D9D9D9"/>
</mask>
<g mask="url(#mask0_442_218)">
<path d="M15 28C12.7917 28 10.9896 27.651 9.59375 26.9531C8.19792 26.2552 7.5 25.3542 7.5 24.25C7.5 23.5208 7.80208 22.8854 8.40625 22.3438C9.01042 21.8021 9.84375 21.375 10.9063 21.0625L11.625 23.4375C11.2708 23.5417 10.9479 23.6719 10.6562 23.8281C10.3646 23.9844 10.1667 24.125 10.0625 24.25C10.3333 24.5833 10.9583 24.875 11.9375 25.125C12.9167 25.375 13.9375 25.5 15 25.5C16.0625 25.5 17.0885 25.375 18.0781 25.125C19.0677 24.875 19.6979 24.5833 19.9688 24.25C19.8646 24.125 19.6667 23.9844 19.375 23.8281C19.0833 23.6719 18.7604 23.5417 18.4062 23.4375L19.125 21.0625C20.1875 21.375 21.0156 21.8021 21.6094 22.3438C22.2031 22.8854 22.5 23.5208 22.5 24.25C22.5 25.3542 21.8021 26.2552 20.4062 26.9531C19.0104 27.651 17.2083 28 15 28ZM15 19.6562C15.375 18.9688 15.7708 18.3385 16.1875 17.7656C16.6042 17.1927 17.0104 16.6458 17.4062 16.125C18.1771 15.125 18.7917 14.224 19.25 13.4219C19.7083 12.6198 19.9375 11.625 19.9375 10.4375C19.9375 9.0625 19.4583 7.89583 18.5 6.9375C17.5417 5.97917 16.375 5.5 15 5.5C13.625 5.5 12.4583 5.97917 11.5 6.9375C10.5417 7.89583 10.0625 9.0625 10.0625 10.4375C10.0625 11.625 10.2917 12.6198 10.75 13.4219C11.2083 14.224 11.8229 15.125 12.5938 16.125C12.9896 16.6458 13.3958 17.1927 13.8125 17.7656C14.2292 18.3385 14.625 18.9688 15 19.6562ZM15 24.25C14.7708 24.25 14.5625 24.1823 14.375 24.0469C14.1875 23.9115 14.0521 23.7292 13.9688 23.5C13.4896 22.0208 12.8854 20.7812 12.1562 19.7812C11.4271 18.7812 10.7188 17.8229 10.0312 16.9062C9.36458 15.9896 8.78646 15.0417 8.29688 14.0625C7.80729 13.0833 7.5625 11.875 7.5625 10.4375C7.5625 8.35417 8.28125 6.59375 9.71875 5.15625C11.1562 3.71875 12.9167 3 15 3C17.0833 3 18.8438 3.71875 20.2812 5.15625C21.7188 6.59375 22.4375 8.35417 22.4375 10.4375C22.4375 11.875 22.1979 13.0833 21.7188 14.0625C21.2396 15.0417 20.6563 15.9896 19.9688 16.9062C19.3021 17.8229 18.599 18.7812 17.8594 19.7812C17.1198 20.7812 16.5104 22.0208 16.0312 23.5C15.9479 23.7292 15.8125 23.9115 15.625 24.0469C15.4375 24.1823 15.2292 24.25 15 24.25ZM15 13.0938C15.7292 13.0938 16.3542 12.8333 16.875 12.3125C17.3958 11.7917 17.6562 11.1667 17.6562 10.4375C17.6562 9.70833 17.3958 9.08333 16.875 8.5625C16.3542 8.04167 15.7292 7.78125 15 7.78125C14.2708 7.78125 13.6458 8.04167 13.125 8.5625C12.6042 9.08333 12.3438 9.70833 12.3438 10.4375C12.3438 11.1667 12.6042 11.7917 13.125 12.3125C13.6458 12.8333 14.2708 13.0938 15 13.0938Z" fill="#FAFF00"/>
</g>
</svg>
