<svg width="31" height="31" viewBox="0 0 31 31" fill="none" xmlns="http://www.w3.org/2000/svg">
<mask id="mask0_465_327" style="mask-type:alpha" maskUnits="userSpaceOnUse" x="0" y="0" width="31" height="31">
<rect x="0.734863" y="0.833496" width="30" height="30" fill="#D9D9D9"/>
</mask>
<g mask="url(#mask0_465_327)">
<path d="M5.73486 25.8335C5.04736 25.8335 4.45882 25.5887 3.96924 25.0991C3.47965 24.6095 3.23486 24.021 3.23486 23.3335V8.3335C3.23486 7.646 3.47965 7.05745 3.96924 6.56787C4.45882 6.07829 5.04736 5.8335 5.73486 5.8335H25.7349C26.4224 5.8335 27.0109 6.07829 27.5005 6.56787C27.9901 7.05745 28.2349 7.646 28.2349 8.3335V23.3335C28.2349 24.021 27.9901 24.6095 27.5005 25.0991C27.0109 25.5887 26.4224 25.8335 25.7349 25.8335H5.73486ZM15.7349 17.0835L5.73486 10.8335V23.3335H25.7349V10.8335L15.7349 17.0835ZM15.7349 14.5835L25.7349 8.3335H5.73486L15.7349 14.5835ZM5.73486 10.8335V8.3335V23.3335V10.8335Z" fill="#FAFF00"/>
</g>
</svg>
